<svg xmlns="http://www.w3.org/2000/svg" width="480" height="480" viewBox="0 0 480 480" role="img" aria-label="Bank QR placeholder">
  <rect width="480" height="480" fill="#fffdf8"/>
  <rect x="36" y="36" width="408" height="408" rx="32" fill="#fffaf3" stroke="#eadfce" stroke-width="4"/>
  <g fill="#302a25">
    <rect x="80" y="80" width="104" height="104" rx="12"/>
    <rect x="296" y="80" width="104" height="104" rx="12"/>
    <rect x="80" y="296" width="104" height="104" rx="12"/>
    <rect x="112" y="112" width="40" height="40" rx="6" fill="#fffdf8"/>
    <rect x="328" y="112" width="40" height="40" rx="6" fill="#fffdf8"/>
    <rect x="112" y="328" width="40" height="40" rx="6" fill="#fffdf8"/>
    <rect x="224" y="84" width="28" height="28" rx="4"/>
    <rect x="224" y="136" width="56" height="28" rx="4"/>
    <rect x="220" y="220" width="36" height="36" rx="4"/>
    <rect x="280" y="220" width="44" height="44" rx="4"/>
    <rect x="348" y="224" width="52" height="28" rx="4"/>
    <rect x="224" y="300" width="28" height="100" rx="4"/>
    <rect x="276" y="300" width="124" height="28" rx="4"/>
    <rect x="324" y="356" width="76" height="44" rx="4"/>
  </g>
  <text x="240" y="252" text-anchor="middle" font-family="Arial, sans-serif" font-size="18" font-weight="700" fill="#b28a5c">ADD QR</text>
</svg>